<svg width="200" height="72" viewBox="0 0 200 72" fill="none" xmlns="http://www.w3.org/2000/svg">
<path d="M175.99 64C172.816 64 169.963 63.4456 167.433 62.3366C164.948 61.1815 162.993 59.6106 161.567 57.6238C160.141 55.5908 159.405 53.2574 159.359 50.6238H166.053C166.283 52.8878 167.203 54.8053 168.813 56.3762C170.469 57.901 172.862 58.6634 175.99 58.6634C178.98 58.6634 181.327 57.9241 183.029 56.4455C184.777 54.9208 185.651 52.9802 185.651 50.6238C185.651 48.7756 185.145 47.2739 184.133 46.1188C183.121 44.9637 181.856 44.0858 180.337 43.4852C178.819 42.8845 176.772 42.2376 174.196 41.5446C171.021 40.7129 168.468 39.8812 166.536 39.0495C164.649 38.2178 163.016 36.9241 161.636 35.1683C160.302 33.3663 159.635 30.9637 159.635 27.9604C159.635 25.3267 160.302 22.9934 161.636 20.9604C162.97 18.9274 164.833 17.3564 167.226 16.2475C169.664 15.1386 172.447 14.5842 175.576 14.5842C180.084 14.5842 183.765 15.7162 186.617 17.9802C189.516 20.2442 191.149 23.2475 191.517 26.9901H184.616C184.386 25.1419 183.42 23.5248 181.718 22.1386C180.015 20.7063 177.761 19.9901 174.955 19.9901C172.332 19.9901 170.193 20.6832 168.537 22.0693C166.881 23.4092 166.053 25.3036 166.053 27.7525C166.053 29.5083 166.536 30.9406 167.502 32.0495C168.514 33.1584 169.733 34.0132 171.159 34.6139C172.631 35.1683 174.679 35.8152 177.301 36.5545C180.476 37.4323 183.029 38.3102 184.961 39.1881C186.893 40.0198 188.55 41.3366 189.93 43.1386C191.31 44.8944 192 47.297 192 50.3465C192 52.703 191.379 54.9208 190.137 57C188.895 59.0792 187.054 60.7657 184.616 62.0594C182.178 63.3531 179.302 64 175.99 64Z" fill="#2E6F40"/>
<path d="M175.99 64C172.816 64 169.963 63.4456 167.433 62.3366C164.948 61.1815 162.993 59.6106 161.567 57.6238C160.141 55.5908 159.405 53.2574 159.359 50.6238H166.053C166.283 52.8878 167.203 54.8053 168.813 56.3762C170.469 57.901 172.862 58.6634 175.99 58.6634C178.98 58.6634 181.327 57.9241 183.029 56.4455C184.777 54.9208 185.651 52.9802 185.651 50.6238C185.651 48.7756 185.145 47.2739 184.133 46.1188C183.121 44.9637 181.856 44.0858 180.337 43.4852C178.819 42.8845 176.772 42.2376 174.196 41.5446C171.021 40.7129 168.468 39.8812 166.536 39.0495C164.649 38.2178 163.016 36.9241 161.636 35.1683C160.302 33.3663 159.635 30.9637 159.635 27.9604C159.635 25.3267 160.302 22.9934 161.636 20.9604C162.97 18.9274 164.833 17.3564 167.226 16.2475C169.664 15.1386 172.447 14.5842 175.576 14.5842C180.084 14.5842 183.765 15.7162 186.617 17.9802C189.516 20.2442 191.149 23.2475 191.517 26.9901H184.616C184.386 25.1419 183.42 23.5248 181.718 22.1386C180.015 20.7063 177.761 19.9901 174.955 19.9901C172.332 19.9901 170.193 20.6832 168.537 22.0693C166.881 23.4092 166.053 25.3036 166.053 27.7525C166.053 29.5083 166.536 30.9406 167.502 32.0495C168.514 33.1584 169.733 34.0132 171.159 34.6139C172.631 35.1683 174.679 35.8152 177.301 36.5545C180.476 37.4323 183.029 38.3102 184.961 39.1881C186.893 40.0198 188.55 41.3366 189.93 43.1386C191.31 44.8944 192 47.297 192 50.3465C192 52.703 191.379 54.9208 190.137 57C188.895 59.0792 187.054 60.7657 184.616 62.0594C182.178 63.3531 179.302 64 175.99 64Z" fill="black" fill-opacity="0.2"/>
<path d="M175.99 64C172.816 64 169.963 63.4456 167.433 62.3366C164.948 61.1815 162.993 59.6106 161.567 57.6238C160.141 55.5908 159.405 53.2574 159.359 50.6238H166.053C166.283 52.8878 167.203 54.8053 168.813 56.3762C170.469 57.901 172.862 58.6634 175.99 58.6634C178.98 58.6634 181.327 57.9241 183.029 56.4455C184.777 54.9208 185.651 52.9802 185.651 50.6238C185.651 48.7756 185.145 47.2739 184.133 46.1188C183.121 44.9637 181.856 44.0858 180.337 43.4852C178.819 42.8845 176.772 42.2376 174.196 41.5446C171.021 40.7129 168.468 39.8812 166.536 39.0495C164.649 38.2178 163.016 36.9241 161.636 35.1683C160.302 33.3663 159.635 30.9637 159.635 27.9604C159.635 25.3267 160.302 22.9934 161.636 20.9604C162.97 18.9274 164.833 17.3564 167.226 16.2475C169.664 15.1386 172.447 14.5842 175.576 14.5842C180.084 14.5842 183.765 15.7162 186.617 17.9802C189.516 20.2442 191.149 23.2475 191.517 26.9901H184.616C184.386 25.1419 183.42 23.5248 181.718 22.1386C180.015 20.7063 177.761 19.9901 174.955 19.9901C172.332 19.9901 170.193 20.6832 168.537 22.0693C166.881 23.4092 166.053 25.3036 166.053 27.7525C166.053 29.5083 166.536 30.9406 167.502 32.0495C168.514 33.1584 169.733 34.0132 171.159 34.6139C172.631 35.1683 174.679 35.8152 177.301 36.5545C180.476 37.4323 183.029 38.3102 184.961 39.1881C186.893 40.0198 188.55 41.3366 189.93 43.1386C191.31 44.8944 192 47.297 192 50.3465C192 52.703 191.379 54.9208 190.137 57C188.895 59.0792 187.054 60.7657 184.616 62.0594C182.178 63.3531 179.302 64 175.99 64Z" fill="black" fill-opacity="0.2"/>
<path d="M129.676 64C125.213 64 121.142 62.9604 117.461 60.8812C113.781 58.7558 110.859 55.8218 108.697 52.0792C106.581 48.2904 105.523 44.0396 105.523 39.3267C105.523 34.6139 106.581 30.3861 108.697 26.6436C110.859 22.8548 113.781 19.9208 117.461 17.8416C121.142 15.7162 125.213 14.6535 129.676 14.6535C134.184 14.6535 138.279 15.7162 141.959 17.8416C145.64 19.9208 148.538 22.8317 150.654 26.5743C152.771 30.3168 153.829 34.5677 153.829 39.3267C153.829 44.0858 152.771 48.3366 150.654 52.0792C148.538 55.8218 145.64 58.7558 141.959 60.8812C138.279 62.9604 134.184 64 129.676 64ZM129.676 58.5248C133.034 58.5248 136.048 57.7393 138.716 56.1683C141.43 54.5974 143.547 52.3564 145.065 49.4455C146.629 46.5347 147.411 43.1617 147.411 39.3267C147.411 35.4455 146.629 32.0726 145.065 29.2079C143.547 26.297 141.453 24.0561 138.785 22.4852C136.117 20.9142 133.08 20.1287 129.676 20.1287C126.271 20.1287 123.235 20.9142 120.567 22.4852C117.898 24.0561 115.782 26.297 114.218 29.2079C112.7 32.0726 111.94 35.4455 111.94 39.3267C111.94 43.1617 112.7 46.5347 114.218 49.4455C115.782 52.3564 117.898 54.5974 120.567 56.1683C123.281 57.7393 126.317 58.5248 129.676 58.5248Z" fill="#2E6F40"/>
<path d="M129.676 64C125.213 64 121.142 62.9604 117.461 60.8812C113.781 58.7558 110.859 55.8218 108.697 52.0792C106.581 48.2904 105.523 44.0396 105.523 39.3267C105.523 34.6139 106.581 30.3861 108.697 26.6436C110.859 22.8548 113.781 19.9208 117.461 17.8416C121.142 15.7162 125.213 14.6535 129.676 14.6535C134.184 14.6535 138.279 15.7162 141.959 17.8416C145.64 19.9208 148.538 22.8317 150.654 26.5743C152.771 30.3168 153.829 34.5677 153.829 39.3267C153.829 44.0858 152.771 48.3366 150.654 52.0792C148.538 55.8218 145.64 58.7558 141.959 60.8812C138.279 62.9604 134.184 64 129.676 64ZM129.676 58.5248C133.034 58.5248 136.048 57.7393 138.716 56.1683C141.43 54.5974 143.547 52.3564 145.065 49.4455C146.629 46.5347 147.411 43.1617 147.411 39.3267C147.411 35.4455 146.629 32.0726 145.065 29.2079C143.547 26.297 141.453 24.0561 138.785 22.4852C136.117 20.9142 133.08 20.1287 129.676 20.1287C126.271 20.1287 123.235 20.9142 120.567 22.4852C117.898 24.0561 115.782 26.297 114.218 29.2079C112.7 32.0726 111.94 35.4455 111.94 39.3267C111.94 43.1617 112.7 46.5347 114.218 49.4455C115.782 52.3564 117.898 54.5974 120.567 56.1683C123.281 57.7393 126.317 58.5248 129.676 58.5248Z" fill="black" fill-opacity="0.2"/>
<path d="M129.676 64C125.213 64 121.142 62.9604 117.461 60.8812C113.781 58.7558 110.859 55.8218 108.697 52.0792C106.581 48.2904 105.523 44.0396 105.523 39.3267C105.523 34.6139 106.581 30.3861 108.697 26.6436C110.859 22.8548 113.781 19.9208 117.461 17.8416C121.142 15.7162 125.213 14.6535 129.676 14.6535C134.184 14.6535 138.279 15.7162 141.959 17.8416C145.64 19.9208 148.538 22.8317 150.654 26.5743C152.771 30.3168 153.829 34.5677 153.829 39.3267C153.829 44.0858 152.771 48.3366 150.654 52.0792C148.538 55.8218 145.64 58.7558 141.959 60.8812C138.279 62.9604 134.184 64 129.676 64ZM129.676 58.5248C133.034 58.5248 136.048 57.7393 138.716 56.1683C141.43 54.5974 143.547 52.3564 145.065 49.4455C146.629 46.5347 147.411 43.1617 147.411 39.3267C147.411 35.4455 146.629 32.0726 145.065 29.2079C143.547 26.297 141.453 24.0561 138.785 22.4852C136.117 20.9142 133.08 20.1287 129.676 20.1287C126.271 20.1287 123.235 20.9142 120.567 22.4852C117.898 24.0561 115.782 26.297 114.218 29.2079C112.7 32.0726 111.94 35.4455 111.94 39.3267C111.94 43.1617 112.7 46.5347 114.218 49.4455C115.782 52.3564 117.898 54.5974 120.567 56.1683C123.281 57.7393 126.317 58.5248 129.676 58.5248Z" fill="black" fill-opacity="0.2"/>
<path d="M101.444 29.3465C101.444 33.3663 100.064 36.7162 97.3035 39.396C94.5892 42.0297 90.4256 43.3465 84.8129 43.3465H75.5657V63.5149H69.2859V15.2079H84.8129C90.2416 15.2079 94.3591 16.5248 97.1655 19.1584C100.018 21.7921 101.444 25.1881 101.444 29.3465ZM84.8129 38.1485C88.3094 38.1485 90.8857 37.3861 92.5419 35.8614C94.1981 34.3366 95.0262 32.165 95.0262 29.3465C95.0262 23.3861 91.6218 20.4059 84.8129 20.4059H75.5657V38.1485H84.8129Z" fill="#2E6F40"/>
<path d="M101.444 29.3465C101.444 33.3663 100.064 36.7162 97.3035 39.396C94.5892 42.0297 90.4256 43.3465 84.8129 43.3465H75.5657V63.5149H69.2859V15.2079H84.8129C90.2416 15.2079 94.3591 16.5248 97.1655 19.1584C100.018 21.7921 101.444 25.1881 101.444 29.3465ZM84.8129 38.1485C88.3094 38.1485 90.8857 37.3861 92.5419 35.8614C94.1981 34.3366 95.0262 32.165 95.0262 29.3465C95.0262 23.3861 91.6218 20.4059 84.8129 20.4059H75.5657V38.1485H84.8129Z" fill="black" fill-opacity="0.2"/>
<path d="M101.444 29.3465C101.444 33.3663 100.064 36.7162 97.3035 39.396C94.5892 42.0297 90.4256 43.3465 84.8129 43.3465H75.5657V63.5149H69.2859V15.2079H84.8129C90.2416 15.2079 94.3591 16.5248 97.1655 19.1584C100.018 21.7921 101.444 25.1881 101.444 29.3465ZM84.8129 38.1485C88.3094 38.1485 90.8857 37.3861 92.5419 35.8614C94.1981 34.3366 95.0262 32.165 95.0262 29.3465C95.0262 23.3861 91.6218 20.4059 84.8129 20.4059H75.5657V38.1485H84.8129Z" fill="black" fill-opacity="0.2"/>
<path d="M55.2135 20.8218C53.1432 20.8218 51.441 20.2211 50.1068 19.0198C48.8186 17.7723 48.1745 16.2475 48.1745 14.4455C48.1745 12.5974 48.8186 11.0726 50.1068 9.87129C51.441 8.62376 53.1432 8 55.2135 8C57.2377 8 58.8939 8.62376 60.1821 9.87129C61.5163 11.0726 62.1834 12.5974 62.1834 14.4455C62.1834 16.2475 61.5163 17.7723 60.1821 19.0198C58.8939 20.2211 57.2377 20.8218 55.2135 20.8218ZM61.0792 24.8416V63.5149H49.2787V24.8416H61.0792Z" fill="#2E6F40"/>
<path d="M55.2135 20.8218C53.1432 20.8218 51.441 20.2211 50.1068 19.0198C48.8186 17.7723 48.1745 16.2475 48.1745 14.4455C48.1745 12.5974 48.8186 11.0726 50.1068 9.87129C51.441 8.62376 53.1432 8 55.2135 8C57.2377 8 58.8939 8.62376 60.1821 9.87129C61.5163 11.0726 62.1834 12.5974 62.1834 14.4455C62.1834 16.2475 61.5163 17.7723 60.1821 19.0198C58.8939 20.2211 57.2377 20.8218 55.2135 20.8218ZM61.0792 24.8416V63.5149H49.2787V24.8416H61.0792Z" fill="black" fill-opacity="0.2"/>
<path d="M55.2135 20.8218C53.1432 20.8218 51.441 20.2211 50.1068 19.0198C48.8186 17.7723 48.1745 16.2475 48.1745 14.4455C48.1745 12.5974 48.8186 11.0726 50.1068 9.87129C51.441 8.62376 53.1432 8 55.2135 8C57.2377 8 58.8939 8.62376 60.1821 9.87129C61.5163 11.0726 62.1834 12.5974 62.1834 14.4455C62.1834 16.2475 61.5163 17.7723 60.1821 19.0198C58.8939 20.2211 57.2377 20.8218 55.2135 20.8218ZM61.0792 24.8416V63.5149H49.2787V24.8416H61.0792Z" fill="black" fill-opacity="0.2"/>
<path d="M31.5321 63.5149L19.8005 47.297V63.5149H8V12.2277H19.8005V40.5743L31.463 24.8416H46.0239L30.0139 44.2475L46.162 63.5149H31.5321Z" fill="#2E6F40"/>
<path d="M31.5321 63.5149L19.8005 47.297V63.5149H8V12.2277H19.8005V40.5743L31.463 24.8416H46.0239L30.0139 44.2475L46.162 63.5149H31.5321Z" fill="black" fill-opacity="0.2"/>
<path d="M31.5321 63.5149L19.8005 47.297V63.5149H8V12.2277H19.8005V40.5743L31.463 24.8416H46.0239L30.0139 44.2475L46.162 63.5149H31.5321Z" fill="black" fill-opacity="0.2"/>
</svg>
